<svg width="89" height="15" viewBox="0 0 89 15" fill="none" xmlns="http://www.w3.org/2000/svg">
<g clip-path="url(#clip0)">
<path d="M0 9.70872L2.22871 9.27073C2.52587 10.5117 3.49166 11.1687 5.34892 11.1687C6.16611 11.1687 6.76043 11.0227 7.20618 10.6577C7.65192 10.3657 7.8748 9.9277 7.8748 9.48971C7.8748 9.12473 7.8005 8.83274 7.57764 8.54075C7.35476 8.24875 6.9833 8.02977 6.31469 7.88377L3.8631 7.22678C3.04591 7.00779 2.37729 6.78881 2.00584 6.49682C1.63439 6.20482 1.26294 5.83982 1.04007 5.32884C0.817195 4.81787 0.668615 4.30687 0.668615 3.72288C0.668615 2.62792 1.11436 1.67895 1.93155 1.02197C2.82303 0.364989 3.8631 0 5.20032 0C6.31469 0 7.28046 0.218994 8.17195 0.729979C9.06344 1.16797 9.58348 1.89795 9.80636 2.70093L7.57764 3.2119C7.20618 2.26293 6.46327 1.75195 5.20032 1.75195C4.45743 1.75195 3.9374 1.89794 3.56594 2.18994C3.26879 2.55493 3.04591 2.91991 3.04591 3.3579C3.04591 4.08788 3.64024 4.59886 4.82889 4.89085L6.98331 5.40183C8.32053 5.69382 9.21202 6.20482 9.65776 6.8618C10.1035 7.51877 10.3264 8.17577 10.3264 8.97874C10.3264 10.2197 9.88063 11.1687 8.91487 11.8986C7.94907 12.6286 6.76043 12.9936 5.20032 12.9936C3.9374 12.9936 2.82303 12.7016 1.85726 12.1906C0.965775 11.6797 0.297163 10.8767 0 9.70872Z" fill="white"/>
<path fill-rule="evenodd" clip-rule="evenodd" d="M11.515 11.5337C12.2579 12.4827 13.298 12.9936 14.7095 12.9936C15.9724 12.9936 17.0868 12.4827 17.904 11.6067C18.7212 10.7307 19.1669 9.56272 19.1669 8.10278C19.1669 6.64281 18.7955 5.47486 17.9783 4.59888C17.1611 3.7229 16.121 3.28491 14.8581 3.28491C13.5208 3.28491 12.4065 3.7229 11.5893 4.67187C10.7721 5.54785 10.4006 6.71582 10.4006 8.10278C10.4006 9.41675 10.7721 10.5117 11.515 11.5337ZM16.9382 8.10278C16.9382 10.2197 16.1953 11.2417 14.7838 11.2417C14.1152 11.2417 13.5951 10.9497 13.2237 10.4387C12.8522 9.85472 12.6293 9.12476 12.6293 8.10278C12.6293 7.15381 12.8522 6.42383 13.2237 5.91285C13.5951 5.32887 14.1152 5.03687 14.8581 5.03687C15.5267 5.03687 16.0467 5.25586 16.4182 5.83984C16.7896 6.42383 16.9382 7.15381 16.9382 8.10278Z" fill="white"/>
<path d="M27.4875 12.7746H25.4817V10.8037C24.9617 12.2637 23.9216 12.9936 22.51 12.9936C21.6186 12.9936 20.95 12.7016 20.4299 12.1906C19.9099 11.6797 19.687 10.9497 19.687 10.0007V3.50391H21.8414V9.56273C21.8414 10.2197 21.99 10.6577 22.2872 10.8767C22.5843 11.0957 22.8815 11.1687 23.1787 11.1687C23.6244 11.1687 24.1443 10.9497 24.5903 10.5847C25.036 10.1467 25.3331 9.27074 25.3331 7.95677V3.50391H27.4875V12.7746Z" fill="white"/>
<path d="M36.4765 12.7746H34.3223V6.93479C34.3223 6.35083 34.1737 5.83983 33.8766 5.54784C33.5793 5.25584 33.2079 5.10985 32.8365 5.10985C32.3165 5.10985 31.7965 5.32885 31.3505 5.83983C30.9048 6.35083 30.7564 7.0078 30.7564 8.02978V12.7746H28.6019V3.50391H30.5334V5.69383C31.2021 4.16088 32.1678 3.35791 33.4307 3.35791C34.248 3.35791 34.9908 3.6499 35.5851 4.16088C36.1795 4.67188 36.4765 5.54784 36.4765 6.86181V12.7746Z" fill="white"/>
<path fill-rule="evenodd" clip-rule="evenodd" d="M43.4599 12.7746H45.4657V0.218994H43.3112V4.59887C42.8655 3.50391 41.9741 2.99291 40.7854 2.99291C39.5967 2.99291 38.7052 3.50391 38.0368 4.45287C37.3681 5.40184 37.0708 6.56981 37.0708 7.88376C37.0708 9.34373 37.3681 10.5117 37.9625 11.4607C38.5568 12.4096 39.4482 12.9206 40.6367 12.9206C41.9741 12.9206 42.9398 12.2636 43.4599 10.8767V12.7746ZM42.8655 5.54784C43.2369 5.9858 43.3856 6.56979 43.3856 7.29977V8.90574C43.3856 9.56271 43.1628 10.1467 42.7912 10.5847C42.3455 11.0227 41.8998 11.2417 41.3797 11.2417C40.0426 11.2417 39.3739 10.1467 39.3739 8.10274C39.3739 7.00778 39.5226 6.20481 39.9683 5.69383C40.3397 5.18283 40.8597 4.89084 41.4541 4.89084C42.0484 4.89084 42.4941 5.10985 42.8655 5.54784Z" fill="white"/>
<path fill-rule="evenodd" clip-rule="evenodd" d="M46.8029 12.7746V0.218994H51.7805C52.5976 0.218994 53.3406 0.291993 53.8606 0.510985C54.3806 0.656982 54.9007 1.02197 55.2721 1.60595C55.6435 2.11694 55.8664 2.77392 55.8664 3.50391C55.8664 4.16088 55.6435 4.81785 55.2721 5.32885C54.8264 5.83983 54.3063 6.13182 53.5633 6.27782C54.455 6.42382 55.1234 6.7888 55.5694 7.37278C56.0151 7.95677 56.2378 8.61374 56.2378 9.34373C56.2378 10.2927 55.9408 11.0957 55.2721 11.7527C54.6034 12.4096 53.6376 12.7746 52.3005 12.7746H46.8029ZM48.9573 5.47483H51.7805C52.3748 5.47483 52.8205 5.32883 53.1176 4.96385C53.4149 4.59885 53.6376 4.16086 53.6376 3.64988C53.6376 3.06589 53.4149 2.6279 53.0433 2.40892C52.6719 2.11693 52.2262 1.97093 51.7061 1.97093H48.9573V5.47483ZM51.9291 10.8767H48.9573V7.22679H51.9291C52.5232 7.22679 53.0433 7.37276 53.4149 7.73776C53.712 8.10274 53.9349 8.54073 53.9349 9.05173C53.9349 9.6357 53.7863 10.0737 53.4149 10.3657C53.0433 10.7307 52.5232 10.8767 51.9291 10.8767Z" fill="white"/>
<path fill-rule="evenodd" clip-rule="evenodd" d="M63.5183 12.1907C64.2613 11.6067 64.7814 10.9497 65.0041 10.0737L63.0726 9.78173C62.7012 10.8037 62.0325 11.3147 60.9181 11.3877C60.3981 11.3877 59.9524 11.2417 59.581 10.9497C59.2096 10.6577 58.9867 10.2927 58.838 9.92773C58.7637 9.56272 58.6896 9.05175 58.6896 8.39477H65.1528V8.17577C65.1528 6.71582 64.7814 5.54785 64.0384 4.67187C63.2956 3.7229 62.2555 3.28491 60.9181 3.28491C59.581 3.28491 58.4666 3.7229 57.5752 4.67187C56.7579 5.62086 56.3865 6.78881 56.3865 8.17577C56.3865 9.63573 56.7579 10.8037 57.5752 11.6797C58.3923 12.5556 59.4324 12.9936 60.7697 12.9936C61.8839 12.9936 62.7755 12.7016 63.5183 12.1907ZM62.3298 5.40185C62.7012 5.76683 62.924 6.35082 62.924 7.00782H58.6896C58.7637 6.27783 58.9867 5.69385 59.358 5.32887C59.7297 4.96386 60.2497 4.74488 60.8438 4.74488C61.4382 4.74488 61.9582 4.96386 62.3298 5.40185Z" fill="white"/>
<path d="M70.1302 11.0957V12.7016C69.4616 12.8476 69.0158 12.9206 68.6442 12.9206C68.0501 12.9206 67.6042 12.7746 67.1584 12.5556C66.7127 12.3366 66.4157 12.0446 66.267 11.6067C66.0441 11.2417 65.97 10.5847 65.97 9.78171V5.10984H64.7812V3.5039H66.1184L66.3413 1.09497L68.1242 0.948975V3.5039H70.0559V5.10984H68.1242V9.63571C68.1242 10.2197 68.1985 10.5847 68.4215 10.8037C68.6442 11.0227 69.0159 11.0957 69.6102 11.0957C69.7586 11.1687 69.9073 11.1687 70.1302 11.0957Z" fill="white"/>
<path d="M75.1821 11.0957V12.7016C74.5134 12.8476 74.0677 12.9206 73.6964 12.9206C73.102 12.9206 72.6563 12.7746 72.2103 12.5556C71.7646 12.3366 71.4676 12.0446 71.3189 11.6067C71.0962 11.2417 71.0219 10.5847 71.0219 9.78171V5.10984H69.8331V3.5039H71.1703L71.3932 1.09497L73.1763 0.948975V3.5039H75.1078V5.10984H73.1763V9.63571C73.1763 10.2197 73.2504 10.5847 73.4734 10.8037C73.6963 11.0227 74.0677 11.0957 74.6621 11.0957C74.8105 11.1687 75.0335 11.1687 75.1821 11.0957Z" fill="white"/>
<path fill-rule="evenodd" clip-rule="evenodd" d="M83.4283 10.0737L81.4965 9.78173C81.1252 10.8037 80.3824 11.3147 79.268 11.3877C78.748 11.3877 78.3022 11.2417 77.9306 10.9497C77.5592 10.6577 77.3365 10.2927 77.1879 9.92773C77.1135 9.56272 77.0392 9.05175 77.0392 8.39477H83.5026V8.17577C83.5026 6.71582 83.131 5.54785 82.3882 4.67187C81.6452 3.7229 80.6051 3.28491 79.268 3.28491C77.9306 3.28491 76.8165 3.7229 75.9991 4.67187C75.182 5.62086 74.8104 6.78881 74.8104 8.17577C74.8104 9.63573 75.182 10.8037 75.9991 11.6797C76.8165 12.5556 77.8565 12.9936 79.1937 12.9936C80.3081 12.9936 81.1995 12.7016 81.9425 12.1907C82.6853 11.6067 83.2053 10.9497 83.4283 10.0737ZM80.7538 5.40185C81.1252 5.76683 81.3481 6.35082 81.3481 7.00782H77.1135C77.1879 6.27783 77.4106 5.69385 77.7822 5.32887C78.1536 4.96386 78.6736 4.74488 79.268 4.74488C79.8624 4.74488 80.3824 4.96386 80.7538 5.40185Z" fill="white"/>
<path d="M86.3254 12.7746H84.1709V3.50391H86.1026V5.69383C86.3997 4.81785 86.7711 4.16088 87.2168 3.7959C87.6627 3.4309 88.1828 3.21191 88.7028 3.21191C88.7769 3.21191 88.8512 3.21191 88.9999 3.21191V5.47485C87.8855 5.47485 87.2168 5.83983 86.8454 6.4968C86.474 7.1538 86.3254 7.81077 86.3254 8.46775V12.7746Z" fill="white"/>
<path d="M56.4609 13.9426H37.8883V15.4026H56.4609V13.9426Z" fill="white"/>
</g>
<defs>
<clipPath id="clip0">
<rect width="89" height="15" fill="white"/>
</clipPath>
</defs>
</svg>
